<?xml version="1.0" standalone="no"?>
<!DOCTYPE svg PUBLIC "-//W3C//DTD SVG 20010904//EN"
 "http://www.w3.org/TR/2001/REC-SVG-20010904/DTD/svg10.dtd">
<svg version="1.0" xmlns="http://www.w3.org/2000/svg"
 width="574.000000pt" height="574.000000pt" viewBox="0 0 574.000000 574.000000"
 preserveAspectRatio="xMidYMid meet">
<metadata>
Created by potrace 1.11, written by Peter Selinger 2001-2013
</metadata>
<g transform="translate(0.000000,574.000000) scale(0.100000,-0.100000)"
fill="#000000" stroke="none">
<path d="M80 4785 l0 -145 295 0 295 0 0 -150 0 -150 150 0 150 0 0 -145 0
-145 145 0 145 0 0 -150 0 -150 150 0 150 0 0 -84 c0 -47 -5 -88 -10 -91 -6
-3 -10 -2 -10 4 0 10 -19 9 -37 -2 -8 -5 -13 -3 -13 5 0 9 -3 9 -10 -2 -8 -12
-10 -12 -10 -1 0 11 -3 11 -16 0 -13 -10 -17 -10 -25 2 -7 11 -9 11 -9 0 0
-11 -3 -11 -15 -1 -12 10 -15 10 -15 0 0 -9 -4 -9 -13 -2 -8 7 -18 7 -27 2 -8
-6 -12 -10 -8 -10 4 0 3 -11 -2 -25 -6 -16 -6 -25 1 -25 6 0 6 -7 -1 -20 -6
-11 -8 -24 -6 -29 3 -5 -1 -12 -10 -15 -12 -5 -15 -2 -10 10 5 13 3 14 -6 7
-7 -6 -21 -9 -30 -8 -10 2 -18 -2 -18 -8 0 -7 -4 -6 -9 2 -8 12 -12 13 -25 2
-10 -8 -13 -18 -8 -25 12 -16 13 -58 1 -50 -6 3 -5 -3 3 -15 15 -24 38 -35 38
-18 0 8 4 6 10 -3 9 -13 10 -13 10 0 0 13 1 13 10 0 7 -11 10 -11 10 -2 0 7 5
10 10 7 6 -4 8 -12 4 -18 -3 -7 0 -5 8 3 13 16 46 18 67 6 6 -4 11 -2 11 5 0
10 3 10 12 1 18 -18 45 3 43 35 -1 15 3 34 9 42 8 11 8 13 -1 8 -8 -5 -11 -1
-10 11 1 14 7 18 22 15 14 -3 16 -2 7 4 -8 6 3 9 30 7 l43 -2 3 -1041 2 -1041
145 0 145 0 0 -295 0 -295 295 0 295 0 0 295 0 295 890 0 890 0 0 -295 0 -295
295 0 295 0 0 295 0 295 145 0 145 0 0 145 0 145 -1625 0 -1625 0 0 150 0 150
1480 0 1480 0 0 145 0 145 145 0 145 0 0 300 0 300 150 0 150 0 0 295 0 295
145 0 145 0 0 295 0 295 -2065 0 -2065 0 0 145 0 145 -150 0 -150 0 0 150 0
150 -145 0 -145 0 0 145 0 145 -445 0 -445 0 0 -145z m5320 -1180 l0 -145
-150 0 -150 0 0 -295 0 -295 -145 0 -145 0 0 -300 0 -300 -1480 0 -1480 0 0
599 c0 532 2 600 16 605 8 3 12 2 9 -4 -3 -6 -1 -10 4 -10 6 0 11 5 11 11 0 8
4 8 13 1 8 -7 18 -7 27 -2 9 5 19 5 27 -2 7 -6 13 -6 13 -1 0 5 21 7 50 3 33
-4 50 -3 51 4 0 8 2 8 5 1 2 -6 20 -9 39 -7 22 3 35 0 35 -7 0 -7 5 -9 10 -6
14 9 13 -8 -2 -23 -9 -9 -9 -12 1 -12 7 0 9 -5 4 -12 -22 -37 12 -63 73 -56
24 3 33 -1 41 -19 6 -13 7 -23 2 -23 -5 0 -9 -5 -9 -11 0 -5 4 -8 9 -5 10 7 9
-13 -1 -29 -4 -6 -3 -17 3 -25 5 -8 9 -11 9 -6 0 5 7 3 15 -4 12 -10 15 -9 15
6 0 17 1 17 15 -2 11 -15 15 -16 15 -4 1 10 4 9 10 -5 7 -17 9 -17 9 -2 1 24
21 22 21 -3 0 -11 6 -20 13 -20 7 0 8 -3 2 -8 -16 -11 -19 -46 -3 -36 10 6 9
3 -1 -10 -12 -14 -12 -19 -1 -29 7 -7 10 -7 7 -1 -4 7 2 9 18 6 15 -2 22 -9
18 -16 -3 -6 2 -4 13 5 26 22 59 4 59 -33 1 -16 -3 -28 -8 -28 -5 0 -5 -6 0
-12 6 -7 9 -20 8 -28 -2 -10 5 -16 16 -16 11 0 19 4 19 8 0 4 11 3 25 -2 18
-7 25 -6 25 3 0 8 4 7 10 -3 6 -10 10 -11 10 -3 0 14 21 13 31 -1 4 -4 16 -3
28 3 16 9 21 9 21 0 0 -8 4 -8 15 1 8 7 15 8 15 3 0 -5 9 -9 20 -9 11 0 20 4
20 8 0 5 8 4 18 -1 10 -5 24 -6 32 -1 7 4 24 4 37 -1 16 -6 23 -5 23 4 0 8 3
7 9 -2 8 -12 12 -12 24 -2 10 8 17 9 22 1 4 -7 12 -7 26 0 12 7 19 7 19 1 0
-7 9 -7 25 -1 14 5 25 6 25 1 0 -10 19 -9 35 1 6 4 17 3 25 -2 8 -5 22 -5 32
1 10 5 18 6 18 1 0 -5 7 -9 15 -9 8 0 15 4 15 9 0 5 8 4 18 -1 10 -5 24 -6 32
-1 7 4 24 4 37 -1 16 -6 23 -5 23 4 0 8 3 8 9 -2 6 -10 10 -10 16 -1 4 6 12 9
19 7 8 -3 10 13 8 53 l-4 57 44 -1 c24 -1 49 3 57 9 11 7 13 7 7 -2 -4 -7 -2
-13 3 -13 15 0 14 13 -1 29 -11 11 -10 12 1 6 11 -6 13 -3 9 13 -4 13 -1 22 5
23 7 0 3 4 -8 9 -11 5 -14 9 -7 9 7 1 10 6 7 11 -3 6 -1 10 5 10 6 0 8 5 5 10
-3 6 -1 10 4 10 6 0 11 -6 11 -12 0 -9 4 -8 10 2 9 13 10 13 10 0 0 -13 2 -13
9 -1 8 12 14 13 36 3 14 -7 24 -8 20 -3 -3 5 0 13 6 17 8 4 7 9 -2 15 -12 7
-12 9 0 9 11 0 11 3 0 17 -10 11 -10 14 -1 9 7 -4 12 -1 12 8 0 9 -6 16 -12
16 -8 0 -9 3 -3 8 16 11 19 45 3 37 -7 -3 -5 0 5 8 16 13 16 15 1 21 -14 5
-14 9 -3 23 8 9 9 14 2 10 -8 -5 -8 -1 0 17 7 13 15 22 19 20 5 -3 8 -1 8 4 0
5 7 9 15 9 8 0 12 -4 9 -9 -3 -4 0 -8 5 -8 6 0 11 6 11 13 0 8 3 8 9 -2 14
-21 41 -23 34 -3 -4 10 -3 14 1 11 13 -12 15 -53 3 -68 -9 -12 -9 -13 1 -7 15
9 15 1 2 -24 -9 -16 -8 -18 6 -13 10 3 15 2 12 -3 -3 -5 0 -15 8 -22 12 -11
14 -10 14 5 0 15 2 16 10 3 8 -12 10 -12 10 -1 0 11 3 11 15 1 10 -8 15 -9 15
-2 0 6 7 9 15 6 8 -4 12 -10 9 -15 -3 -5 1 -9 8 -9 9 0 9 -3 -2 -10 -12 -8
-12 -10 -1 -10 11 0 11 -3 1 -15 -10 -12 -10 -15 1 -16 10 0 10 -2 2 -6 -10
-3 -9 -10 2 -27 8 -12 14 -25 13 -27 -2 -2 2 0 7 6 13 13 38 13 47 0 5 -6 8
-5 8 2 0 7 7 10 15 7 8 -4 12 -10 9 -15 -3 -5 -1 -9 5 -9 5 0 8 -8 6 -17 -1
-10 3 -24 9 -32 8 -11 8 -13 -1 -7 -8 4 -13 2 -13 -6 0 -22 14 -34 38 -32 22
1 27 -14 22 -73 -3 -38 28 -58 59 -39 8 5 16 4 21 -4 6 -9 12 -9 29 -1 11 7
21 8 21 3 0 -5 7 -9 15 -9 8 0 15 4 15 8 0 4 13 4 28 -1 16 -4 36 -4 45 2 10
5 17 5 17 0 0 -5 7 -9 15 -9 8 0 15 4 15 8 0 4 13 4 30 -1 19 -5 32 -5 36 2 4
6 9 6 14 -3 7 -10 12 -10 23 0 10 8 17 8 21 2 5 -7 15 -7 31 -1 16 6 25 6 25
-1 0 -6 7 -6 20 1 11 6 20 7 20 3 0 -4 11 -8 25 -8 14 0 25 5 25 10 0 6 5 3
10 -5 5 -8 10 -10 10 -4 0 6 7 11 15 11 8 0 15 -4 15 -8 0 -9 20 -7 37 4 6 4
13 2 15 -4 3 -8 9 -6 20 4 8 9 19 13 23 9 5 -4 4 0 -1 8 -13 24 -14 44 -1 52
9 6 9 8 0 8 -6 0 -11 8 -10 18 1 19 48 27 58 10 4 -6 10 0 14 13 4 13 13 27
19 31 8 6 7 8 -1 8 -7 0 -13 7 -13 16 0 9 5 12 13 8 9 -6 9 -4 1 7 -6 8 -11
22 -11 31 0 14 3 15 14 7 10 -9 13 -8 13 1 0 10 3 10 15 0 10 -9 15 -9 15 -1
0 6 5 11 11 11 6 0 8 -8 5 -17 -6 -17 -5 -17 8 0 15 20 31 23 20 5 -5 -10 -4
-10 6 -1 7 7 11 29 9 57 -3 31 0 46 8 46 6 0 15 4 18 10 4 6 -1 7 -12 3 -10
-3 -15 -3 -11 1 10 12 78 13 79 1 0 -5 3 -4 6 3 2 6 9 12 14 12 6 0 7 -5 3
-12 -5 -7 -3 -8 5 -3 8 4 11 20 9 36 -3 17 0 29 6 29 6 0 4 5 -4 10 -8 5 -10
10 -4 10 12 0 11 32 -1 63 -4 9 -3 17 1 17 5 0 9 15 9 34 0 27 -4 33 -17 31
-10 -2 -18 2 -18 8 0 7 -4 6 -10 -3 -8 -12 -10 -12 -10 -1 0 11 -3 11 -15 1
-12 -10 -15 -10 -15 0 0 10 -3 10 -15 0 -12 -10 -15 -10 -15 0 0 9 -4 9 -17
-1 -15 -12 -16 -12 -8 1 8 13 7 13 -8 1 -12 -9 -17 -10 -17 -2 0 9 -5 9 -20 1
-15 -8 -20 -8 -20 1 0 8 -4 8 -15 -1 -12 -10 -15 -10 -15 1 0 11 -2 11 -10 -1
-8 -12 -10 -12 -10 -1 0 10 -3 11 -14 2 -11 -9 -16 -9 -21 0 -6 8 -10 7 -16
-2 -6 -10 -9 -10 -9 -2 0 9 -7 10 -25 3 -17 -7 -25 -6 -25 1 0 8 -5 7 -15 -1
-12 -10 -15 -10 -15 0 0 10 -3 10 -15 0 -12 -10 -15 -10 -15 0 0 10 -3 10 -15
0 -12 -10 -15 -10 -15 1 0 10 -3 10 -12 1 -8 -8 -15 -9 -25 -1 -10 9 -13 8
-13 -1 0 -10 -3 -10 -15 0 -12 10 -15 10 -15 -1 0 -11 -2 -11 -10 1 -5 8 -10
10 -10 5 0 -6 -13 -11 -30 -10 -16 0 -30 4 -30 9 0 5 -7 3 -15 -4 -12 -10 -15
-10 -15 1 0 10 -3 10 -12 1 -7 -7 -17 -8 -29 -2 -12 7 -20 6 -25 -1 -4 -8 -9
-7 -14 2 -7 10 -11 10 -24 0 -13 -11 -16 -11 -16 0 0 11 -2 11 -10 -1 -8 -12
-10 -12 -10 -1 0 11 -3 11 -15 1 -12 -10 -15 -10 -15 0 0 10 -3 10 -15 0 -12
-10 -15 -10 -15 1 0 11 -2 11 -10 -1 -8 -12 -10 -12 -10 -1 0 11 -3 11 -15 1
-12 -10 -18 -10 -30 0 -12 10 -15 10 -16 -1 0 -11 -2 -11 -6 -1 -4 10 -8 10
-19 1 -11 -9 -14 -8 -14 2 0 10 -3 10 -12 1 -7 -7 -17 -8 -29 -2 -12 7 -20 6
-25 -1 -4 -8 -9 -7 -16 2 -8 11 -11 11 -15 1 -4 -10 -8 -10 -19 -1 -11 9 -14
8 -14 -2 0 -11 -2 -11 -10 1 -5 8 -10 11 -10 5 0 -5 -11 -10 -25 -10 -14 0
-25 4 -25 9 0 5 -7 3 -15 -4 -12 -10 -15 -10 -15 0 0 10 -3 10 -15 0 -12 -10
-15 -10 -15 0 0 10 -3 10 -15 0 -12 -10 -15 -10 -15 0 0 9 -4 9 -17 -1 -15
-12 -16 -12 -8 1 8 13 7 13 -8 1 -13 -10 -17 -10 -17 -1 0 9 -4 9 -17 -1 -15
-12 -16 -12 -8 1 8 13 7 13 -8 1 -13 -10 -17 -10 -17 -1 0 10 -3 10 -15 0 -12
-10 -15 -10 -15 0 0 10 -3 10 -15 0 -12 -10 -15 -10 -15 0 0 10 -3 10 -15 0
-12 -10 -15 -10 -15 1 0 11 -2 11 -10 -1 -8 -12 -10 -12 -10 -1 0 11 -3 11
-15 1 -12 -10 -15 -10 -15 0 0 10 -3 10 -15 0 -12 -10 -15 -10 -15 0 0 10 -3
10 -15 0 -12 -10 -15 -10 -15 0 0 9 -4 9 -17 -1 -15 -12 -16 -12 -8 1 7 13 6
13 -7 2 -13 -10 -17 -10 -20 0 -4 10 -8 10 -21 -1 -14 -11 -17 -11 -17 0 0 11
-2 11 -10 -1 -8 -12 -10 -12 -10 -1 0 11 -3 11 -15 1 -12 -10 -18 -10 -30 0
-12 10 -15 10 -16 -1 0 -11 -2 -11 -6 -1 -4 10 -8 10 -19 1 -11 -9 -14 -8 -14
2 0 10 -3 10 -12 1 -7 -7 -17 -8 -29 -2 -12 7 -20 6 -25 -1 -4 -8 -9 -7 -14 2
-7 10 -11 10 -24 0 -13 -11 -16 -11 -16 0 0 11 -2 11 -10 -1 -8 -12 -10 -12
-10 -1 0 11 -3 11 -17 0 -13 -11 -17 -11 -21 -1 -3 10 -7 10 -18 1 -11 -9 -14
-9 -14 1 0 10 -3 10 -15 0 -12 -10 -15 -10 -15 0 0 10 -3 10 -15 0 -12 -10
-15 -10 -15 0 0 9 -4 9 -17 -1 -15 -12 -16 -12 -8 1 8 13 7 13 -8 1 -12 -9
-17 -10 -17 -2 0 9 -5 9 -20 1 -15 -8 -20 -8 -20 1 0 8 -4 8 -15 -1 -12 -10
-15 -10 -15 0 0 10 -3 10 -15 0 -12 -10 -15 -10 -15 0 0 10 -3 10 -15 0 -12
-10 -15 -10 -15 0 0 10 -3 10 -15 0 -12 -10 -15 -10 -15 1 0 11 -2 11 -10 -1
-8 -12 -10 -12 -10 -1 0 11 -3 11 -17 0 -15 -12 -16 -12 -8 1 8 13 7 13 -8 1
-13 -10 -17 -10 -17 -1 0 10 -3 10 -15 0 -12 -10 -15 -10 -15 0 0 10 -3 10
-15 0 -12 -10 -15 -10 -15 0 0 10 -3 10 -15 0 -12 -10 -15 -10 -15 1 0 11 -2
11 -10 -1 -8 -12 -10 -12 -10 -1 0 11 -3 11 -15 1 -12 -10 -15 -10 -15 0 0 10
-3 10 -15 0 -12 -10 -15 -10 -15 1 0 11 -2 11 -10 -1 -8 -12 -10 -12 -10 -1 0
11 -3 11 -15 1 -8 -7 -15 -9 -15 -4 0 5 -13 9 -30 9 -16 1 -30 -4 -30 -10 0
-5 -5 -3 -10 5 -8 12 -10 12 -10 1 0 -11 -3 -11 -15 -1 -9 7 -15 8 -15 2 0 -5
-11 -9 -25 -8 -14 0 -25 5 -25 10 0 5 -7 3 -15 -4 -12 -10 -15 -10 -15 1 0 11
-2 11 -10 -1 -8 -12 -10 -12 -10 -1 0 11 -3 11 -15 1 -8 -7 -15 -8 -15 -3 0
11 -40 11 -57 0 -8 -5 -13 -3 -13 5 0 9 -3 9 -10 -2 -8 -12 -10 -12 -10 -1 0
11 -3 11 -17 0 -13 -11 -17 -11 -21 -1 -3 10 -7 10 -18 1 -11 -9 -14 -9 -14 1
0 10 -3 10 -15 0 -12 -10 -15 -10 -15 0 0 10 -3 10 -15 0 -12 -10 -15 -10 -15
0 0 9 -4 9 -17 -1 -15 -12 -16 -12 -8 1 8 13 7 13 -8 1 -14 -11 -17 -11 -17 0
0 11 -2 11 -10 -1 -9 -13 -10 -13 -10 0 0 9 -3 11 -8 5 -4 -5 -16 -10 -27 -10
-18 0 -20 8 -23 88 l-3 87 1776 0 1775 0 0 -145z"/>
</g>
</svg>
